<svg xmlns="http://www.w3.org/2000/svg" xmlns:xlink="http://www.w3.org/1999/xlink" id="body_1" preserveAspectRatio="xMinYMin meet" viewBox="0 0 793 1123"><defs><clipPath id="1"><path clip-rule="evenodd" d="M0 842L0 0L0 0L595 0L595 0L595 842L595 842L0 842z" /></clipPath><clipPath id="2"><path clip-rule="evenodd" d="M12 830L583 830L583 830L583 12L583 12L12 12z" /></clipPath></defs><g transform="matrix(1.333333 0 0 1.333333 0 0)"><g clip-path="url(#1)"><g clip-path="url(#2)"><path transform="matrix(1 0 0 -1 0 842)" d="M77.99998 705.92L517.44 705.92L517.44 737.12L77.99998 737.12z" stroke="none" fill="#FFFFFF" fill-rule="nonzero" /><path transform="matrix(1 0 0 -1 0 842)" d="M77.99999 674.72L517.44 674.72L517.44 705.92L77.99999 705.92z" stroke="none" fill="#FFFFFE" fill-rule="nonzero" /><path transform="matrix(1 0 0 -1 0 842)" d="M77.99998 643.52L517.44 643.52L517.44 674.72L77.99998 674.72z" stroke="none" fill="#FFFFFE" fill-rule="nonzero" /><path transform="matrix(1 0 0 -1 0 842)" d="M77.99999 612.32L517.44 612.32L517.44 643.52L77.99999 643.52z" stroke="none" fill="#FFFFFE" fill-rule="nonzero" /><path transform="matrix(1 0 0 -1 0 842)" d="M77.99998 581.12L517.44 581.12L517.44 612.32L77.99998 612.32z" stroke="none" fill="#FFFFFE" fill-rule="nonzero" /><path transform="matrix(1 0 0 -1 0 842)" d="M77.99999 549.92L517.44 549.92L517.44 581.12L77.99999 581.12z" stroke="none" fill="#FFFFFE" fill-rule="nonzero" /><path transform="matrix(1 0 0 -1 0 842)" d="M77.99998 518.72L517.44 518.72L517.44 549.92L77.99998 549.92z" stroke="none" fill="#FFFFFE" fill-rule="nonzero" /><path transform="matrix(1 0 0 -1 0 842)" d="M77.99999 487.52L517.44 487.52L517.44 518.72L77.99999 518.72z" stroke="none" fill="#FFFFFE" fill-rule="nonzero" /><path transform="matrix(1 0 0 -1 0 842)" d="M77.99998 456.32L517.44 456.32L517.44 487.52L77.99998 487.52z" stroke="none" fill="#FFFFFE" fill-rule="nonzero" /><path transform="matrix(1 0 0 -1 0 842)" d="M77.99999 425.12L517.44 425.12L517.44 456.32L77.99999 456.32z" stroke="none" fill="#FFFFFE" fill-rule="nonzero" /><path transform="matrix(1 0 0 -1 0 842)" d="M77.99998 393.92L517.44 393.92L517.44 425.12L77.99998 425.12z" stroke="none" fill="#FFFFFE" fill-rule="nonzero" /><path transform="matrix(1 0 0 -1 0 842)" d="M77.99999 362.72L517.44 362.72L517.44 393.92L77.99999 393.92z" stroke="none" fill="#FFFFFE" fill-rule="nonzero" /><path transform="matrix(1 0 0 -1 0 842)" d="M77.99998 331.52L517.44 331.52L517.44 362.72L77.99998 362.72z" stroke="none" fill="#FFFFFE" fill-rule="nonzero" /><path transform="matrix(1 0 0 -1 0 842)" d="M77.99999 300.32L517.44 300.32L517.44 331.52L77.99999 331.52z" stroke="none" fill="#FFFFFE" fill-rule="nonzero" /><path transform="matrix(1 0 0 -1 0 842)" d="M77.99998 269.12L517.44 269.12L517.44 300.32L77.99998 300.32z" stroke="none" fill="#FFFFFE" fill-rule="nonzero" /><path transform="matrix(1 0 0 -1 0 842)" d="M77.99999 237.92L517.44 237.92L517.44 269.12L77.99999 269.12z" stroke="none" fill="#FFFFFE" fill-rule="nonzero" /><path transform="matrix(1 0 0 -1 0 842)" d="M77.99998 206.72L517.44 206.72L517.44 237.92L77.99998 237.92z" stroke="none" fill="#FFFFFE" fill-rule="nonzero" /><path transform="matrix(1 0 0 -1 0 842)" d="M77.99999 175.52L517.44 175.52L517.44 206.72L77.99999 206.72z" stroke="none" fill="#FFFFFE" fill-rule="nonzero" /><path transform="matrix(1 0 0 -1 0 842)" d="M77.99998 144.32L517.44 144.32L517.44 175.52L77.99998 175.52z" stroke="none" fill="#FFFFFE" fill-rule="nonzero" /></g></g></g></svg>