<svg xmlns="http://www.w3.org/2000/svg" xmlns:xlink="http://www.w3.org/1999/xlink" id="body_2" preserveAspectRatio="xMinYMin meet" viewBox="0 0 793 1121"><defs><clipPath id="1"><path clip-rule="evenodd" d="M0 841L0 -0.9199829L0 -0.9199829L595.32 -0.9199829L595.32 -0.9199829L595.32 841L595.32 841L0 841z" /></clipPath></defs><g transform="matrix(1.333333 0 0 1.333333 0 0)"><g clip-path="url(#1)"><path transform="matrix(1 0 0 -1 0 841)" d="M0 0.019958L595.3 0.019958L595.3 0.019958L595.3 841.92L595.3 841.92L0 841.92z" stroke="none" fill="#FFFFFF" fill-rule="evenodd" /><path transform="matrix(1 0 0 -1 0 841)" d="M78.024 709.06L517.534 709.06L517.534 709.06L517.534 737.02L517.534 737.02L78.024 737.02z" stroke="none" fill="#FFFFFF" fill-rule="evenodd" /><path transform="matrix(1 0 0 -1 0 841)" d="M78.024 680.98L517.534 680.98L517.534 680.98L517.534 709.06L517.534 709.06L78.024 709.06z" stroke="none" fill="#FFFFFF" fill-rule="evenodd" /><path transform="matrix(1 0 0 -1 0 841)" d="M78.024 653.02L517.534 653.02L517.534 653.02L517.534 680.98L517.534 680.98L78.024 680.98z" stroke="none" fill="#FFFFFF" fill-rule="evenodd" /><path transform="matrix(1 0 0 -1 0 841)" d="M78.024 625.06L517.534 625.06L517.534 625.06L517.534 653.02L517.534 653.02L78.024 653.02z" stroke="none" fill="#FFFFFF" fill-rule="evenodd" /><path transform="matrix(1 0 0 -1 0 841)" d="M78.024 596.95L517.534 596.95L517.534 596.95L517.534 625.054L517.534 625.054L78.024 625.054z" stroke="none" fill="#FFFFFF" fill-rule="evenodd" /><path transform="matrix(1 0 0 -1 0 841)" d="M78.024 568.99L517.534 568.99L517.534 568.99L517.534 596.95L517.534 596.95L78.024 596.95z" stroke="none" fill="#FFFFFF" fill-rule="evenodd" /><path transform="matrix(1 0 0 -1 0 841)" d="M78.024 541.03L517.534 541.03L517.534 541.03L517.534 568.9901L517.534 568.9901L78.024 568.9901z" stroke="none" fill="#FFFFFF" fill-rule="evenodd" /><path transform="matrix(1 0 0 -1 0 841)" d="M78.024 512.95L517.534 512.95L517.534 512.95L517.534 541.03L517.534 541.03L78.024 541.03z" stroke="none" fill="#FFFFFF" fill-rule="evenodd" /><path transform="matrix(1 0 0 -1 0 841)" d="M78.024 484.99L517.534 484.99L517.534 484.99L517.534 512.95L517.534 512.95L78.024 512.95z" stroke="none" fill="#FFFFFF" fill-rule="evenodd" /><path transform="matrix(1 0 0 -1 0 841)" d="M78.024 457.03L517.534 457.03L517.534 457.03L517.534 484.99L517.534 484.99L78.024 484.99z" stroke="none" fill="#FFFFFF" fill-rule="evenodd" /><path transform="matrix(1 0 0 -1 0 841)" d="M78.024 428.93L517.534 428.93L517.534 428.93L517.534 457.034L517.534 457.034L78.024 457.034z" stroke="none" fill="#FFFFFF" fill-rule="evenodd" /><path transform="matrix(1 0 0 -1 0 841)" d="M78.024 400.97L517.534 400.97L517.534 400.97L517.534 428.93L517.534 428.93L78.024 428.93z" stroke="none" fill="#FFFFFF" fill-rule="evenodd" /><path transform="matrix(1 0 0 -1 0 841)" d="M78.024 373.01L517.534 373.01L517.534 373.01L517.534 400.97L517.534 400.97L78.024 400.97z" stroke="none" fill="#FFFFFF" fill-rule="evenodd" /><path transform="matrix(1 0 0 -1 0 841)" d="M78.024 344.93L517.534 344.93L517.534 344.93L517.534 373.01L517.534 373.01L78.024 373.01z" stroke="none" fill="#FFFFFF" fill-rule="evenodd" /><path transform="matrix(1 0 0 -1 0 841)" d="M78.024 316.97L517.534 316.97L517.534 316.97L517.534 344.93L517.534 344.93L78.024 344.93z" stroke="none" fill="#FFFFFF" fill-rule="evenodd" /><path transform="matrix(1 0 0 -1 0 841)" d="M78.024 289.01L517.534 289.01L517.534 289.01L517.534 316.97L517.534 316.97L78.024 316.97z" stroke="none" fill="#FFFFFF" fill-rule="evenodd" /><path transform="matrix(1 0 0 -1 0 841)" d="M78.024 260.9L517.534 260.9L517.534 260.9L517.534 289.004L517.534 289.004L78.024 289.004z" stroke="none" fill="#FFFFFF" fill-rule="evenodd" /><path transform="matrix(1 0 0 -1 0 841)" d="M78.024 232.94L517.534 232.94L517.534 232.94L517.534 260.9L517.534 260.9L78.024 260.9z" stroke="none" fill="#FFFFFF" fill-rule="evenodd" /><path transform="matrix(1 0 0 -1 0 841)" d="M78.024 204.98L517.534 204.98L517.534 204.98L517.534 232.94L517.534 232.94L78.024 232.94z" stroke="none" fill="#FFFFFF" fill-rule="evenodd" /><path transform="matrix(1 0 0 -1 0 841)" d="M78.024 176.9L517.534 176.9L517.534 176.9L517.534 204.98L517.534 204.98L78.024 204.98z" stroke="none" fill="#FFFFFF" fill-rule="evenodd" /><path transform="matrix(1 0 0 -1 0 841)" d="M78.024 148.94L517.534 148.94L517.534 148.94L517.534 176.9L517.534 176.9L78.024 176.9z" stroke="none" fill="#FFFFFF" fill-rule="evenodd" /><path transform="matrix(1 0 0 -1 0 841)" d="M78.024 120.98L517.534 120.98L517.534 120.98L517.534 148.94L517.534 148.94L78.024 148.94z" stroke="none" fill="#FFFFFF" fill-rule="evenodd" /></g></g></svg>