<svg xmlns="http://www.w3.org/2000/svg" xmlns:xlink="http://www.w3.org/1999/xlink" id="body_6" preserveAspectRatio="xMinYMin meet" viewBox="0 0 793 1121"><defs><clipPath id="1"><path clip-rule="evenodd" d="M0 841L0 -0.9199829L0 -0.9199829L595.32 -0.9199829L595.32 -0.9199829L595.32 841L595.32 841L0 841z" /></clipPath></defs><g transform="matrix(1.333333 0 0 1.333333 0 0)"><g clip-path="url(#1)"><path transform="matrix(1 0 0 -1 0 841)" d="M0 0.019958L595.3 0.019958L595.3 0.019958L595.3 841.92L595.3 841.92L0 841.92z" stroke="none" fill="#FFFFFF" fill-rule="evenodd" /><path transform="matrix(1 0 0 -1 0 841)" d="M78.024 709.06L517.534 709.06L517.534 709.06L517.534 737.02L517.534 737.02L78.024 737.02z" stroke="none" fill="#FFFFFF" fill-rule="evenodd" /><path transform="matrix(1 0 0 -1 0 841)" d="M78.024 680.98L517.534 680.98L517.534 680.98L517.534 709.06L517.534 709.06L78.024 709.06z" stroke="none" fill="#FFFFFF" fill-rule="evenodd" /><path transform="matrix(1 0 0 -1 0 841)" d="M78.024 653.02L517.534 653.02L517.534 653.02L517.534 680.98L517.534 680.98L78.024 680.98z" stroke="none" fill="#FFFFFF" fill-rule="evenodd" /><path transform="matrix(1 0 0 -1 0 841)" d="M78.024 625.06L517.534 625.06L517.534 625.06L517.534 653.02L517.534 653.02L78.024 653.02z" stroke="none" fill="#FFFFFF" fill-rule="evenodd" /><path transform="matrix(1 0 0 -1 0 841)" d="M78.024 596.95L517.534 596.95L517.534 596.95L517.534 625.054L517.534 625.054L78.024 625.054z" stroke="none" fill="#FFFFFF" fill-rule="evenodd" /><path transform="matrix(1 0 0 -1 0 841)" d="M78.024 568.99L517.534 568.99L517.534 568.99L517.534 596.95L517.534 596.95L78.024 596.95z" stroke="none" fill="#FFFFFF" fill-rule="evenodd" /></g></g></svg>