<svg xmlns="http://www.w3.org/2000/svg" xmlns:xlink="http://www.w3.org/1999/xlink" id="body_7" preserveAspectRatio="xMinYMin meet" viewBox="0 0 793 1121"><defs><clipPath id="1"><path clip-rule="evenodd" d="M0 841L0 -0.9199829L0 -0.9199829L595.32 -0.9199829L595.32 -0.9199829L595.32 841L595.32 841L0 841z" /></clipPath></defs><g transform="matrix(1.333333 0 0 1.333333 0 0)"><g clip-path="url(#1)"><path transform="matrix(1 0 0 -1 0 841)" d="M0 0.019958L595.3 0.019958L595.3 0.019958L595.3 841.92L595.3 841.92L0 841.92z" stroke="none" fill="#FFFFFF" fill-rule="evenodd" /><path transform="matrix(1 0 0 -1 0 841)" d="M111.62 619.3L505.29 619.3L505.29 619.3L505.29 620.14L505.29 620.14L111.62 620.14z" stroke="none" fill="#000000" fill-rule="evenodd" /><path transform="matrix(1 0 0 -1 0 841)" d="M79.464 588.07L513.214 588.07L513.214 588.07L513.214 588.91L513.214 588.91L79.464 588.91z" stroke="none" fill="#000000" fill-rule="evenodd" /><path transform="matrix(1 0 0 -1 0 841)" d="M79.464 556.87L513.214 556.87L513.214 556.87L513.214 557.71L513.214 557.71L79.464 557.71z" stroke="none" fill="#000000" fill-rule="evenodd" /><path transform="matrix(1 0 0 -1 0 841)" d="M79.464 525.67L513.214 525.67L513.214 525.67L513.214 526.51L513.214 526.51L79.464 526.51z" stroke="none" fill="#000000" fill-rule="evenodd" /><path transform="matrix(1 0 0 -1 0 841)" d="M79.464 494.47L513.214 494.47L513.214 494.47L513.214 495.31L513.214 495.31L79.464 495.31z" stroke="none" fill="#000000" fill-rule="evenodd" /><path transform="matrix(1 0 0 -1 0 841)" d="M79.464 463.27L513.214 463.27L513.214 463.27L513.214 464.11L513.214 464.11L79.464 464.11z" stroke="none" fill="#000000" fill-rule="evenodd" /><path transform="matrix(1 0 0 -1 0 841)" d="M79.464 432.05L513.214 432.05L513.214 432.05L513.214 432.89L513.214 432.89L79.464 432.89z" stroke="none" fill="#000000" fill-rule="evenodd" /><path transform="matrix(1 0 0 -1 0 841)" d="M79.464 400.85L505.174 400.85L505.174 400.85L505.174 401.69L505.174 401.69L79.464 401.69z" stroke="none" fill="#000000" fill-rule="evenodd" /><path transform="matrix(1 0 0 -1 0 841)" d="M79.464 369.65L505.174 369.65L505.174 369.65L505.174 370.49L505.174 370.49L79.464 370.49z" stroke="none" fill="#000000" fill-rule="evenodd" /><path transform="matrix(1 0 0 -1 0 841)" d="M79.464 338.45L505.174 338.45L505.174 338.45L505.174 339.29L505.174 339.29L79.464 339.29z" stroke="none" fill="#000000" fill-rule="evenodd" /><path transform="matrix(1 0 0 -1 0 841)" d="M79.464 307.25L368.594 307.25L368.594 307.25L368.594 308.09L368.594 308.09L79.464 308.09z" stroke="none" fill="#000000" fill-rule="evenodd" /></g></g></svg>